# Made in Blockbench 4.0.4
mtllib roof.mtl

o board
v 1 1.0000000084168854 -1.4802414405323816e-8
v 1 0.9558058409782552 -0.044194182241044544
v 1 -1.4802414386151715e-8 1.0000000084168854
v 1 -0.044194182241044634 0.9558058409782552
v 0 0.9558058409782552 -0.044194182241044544
v 0 1.0000000084168854 -1.4802414405323816e-8
v 0 -0.044194182241044634 0.9558058409782552
v 0 -1.4802414386151715e-8 1.0000000084168854
vt 0 1
vt 1 1
vt 1 0
vt 0 0
vt 0 1
vt 0.06249999096949821 1
vt 0.06249999096949821 0
vt 0 0
vt 0 1
vt 0.06249999096949821 1
vt 0.06249999096949821 0
vt 0 0
vt 1 0.9375000090305018
vt 0 0.9375000090305018
vt 0 1
vt 1 1
vt 1 9.030501790796563e-9
vt 0 9.030501790796563e-9
vt 0 0.0625
vt 1 0.0625
vn 0 -0.7071067811865476 -0.7071067811865475
vn 1 0 0
vn -1 0 0
vn 0 0.7071067811865475 -0.7071067811865476
vn 0 -0.7071067811865475 0.7071067811865476
usemtl m_1
f 4/4/1 7/3/1 5/2/1 2/1/1
f 3/8/2 4/7/2 2/6/2 1/5/2
f 7/12/3 8/11/3 6/10/3 5/9/3
f 6/16/4 1/15/4 2/14/4 5/13/4
f 7/20/5 4/19/5 3/18/5 8/17/5
o shingles
v 1 0.8876625084168853 0.19756248519758535
v 1 1.0000000084168854 -1.4802414682879572e-8
v 1 0.8333937584168853 0.1666687351975853
v 1 1.0000000084168854 -1.4802414682879572e-8
v 0 0.8876625084168853 0.19756248519758535
v 0 1.0000000084168854 -1.4802414682879572e-8
v 0 0.8333937584168853 0.1666687351975853
v 0 1.0000000084168854 -1.4802414682879572e-8
v 1 0.7209958340342154 0.36422916543405537
v 1 0.8333333340342155 0.16666666543405534
v 1 0.6667270840342154 0.3333354154340553
v 1 0.8333333340342155 0.16666666543405534
v 0 0.7209958340342154 0.36422916543405537
v 0 0.8333333340342155 0.16666666543405534
v 0 0.6667270840342154 0.3333354154340553
v 0 0.8333333340342155 0.16666666543405534
v 1 0.5543291670171077 0.5308958327170278
v 1 0.6666666670171078 0.3333333327170278
v 1 0.5000604170171077 0.5000020827170277
v 1 0.6666666670171078 0.3333333327170278
v 0 0.5543291670171077 0.5308958327170278
v 0 0.6666666670171078 0.3333333327170278
v 0 0.5000604170171077 0.5000020827170277
v 0 0.6666666670171078 0.3333333327170278
v 1 0.38766249999999997 0.6975624999999999
v 1 0.5 0.5
v 1 0.33339374999999993 0.6666687499999999
v 1 0.5 0.5
v 0 0.38766249999999997 0.6975624999999999
v 0 0.5 0.5
v 0 0.33339374999999993 0.6666687499999999
v 0 0.5 0.5
v 1 0.22099583298289216 0.8642291672829725
v 1 0.33333333298289225 0.6666666672829724
v 1 0.16672708298289218 0.8333354172829723
v 1 0.33333333298289225 0.6666666672829724
v 0 0.22099583298289216 0.8642291672829725
v 0 0.33333333298289225 0.6666666672829724
v 0 0.16672708298289218 0.8333354172829723
v 0 0.33333333298289225 0.6666666672829724
v 1 0.054268741583114566 1.0308937648024146
v 1 0.16660624158311466 0.8333312648024145
v 1 -8.416885410866826e-9 1.0000000148024144
v 1 0.16660624158311466 0.8333312648024145
v 0 0.054268741583114566 1.0308937648024146
v 0 0.16660624158311466 0.8333312648024145
v 0 -8.416885410866826e-9 1.0000000148024144
v 0 0.16660624158311466 0.8333312648024145
vt 0.9375 0.4375
vt 1 0.4375
vt 1 0.6875
vt 0.9375 0.6875
vt 0 0.4375
vt 0.0625 0.4375
vt 0.0625 0.6875
vt 0 0.6875
vt 0 0.4375
vt 1 0.4375
vt 1 0.6875
vt 0 0.6875
vt 1 0.375
vt 1 0.4375
vt 0 0.4375
vt 0 0.375
vt 0.9375 0.125
vt 1 0.125
vt 1 0.375
vt 0.9375 0.375
vt 0.0625 0.125
vt 0.0625 0.375
vt 0 0.125
vt 0 0.375
vt 0 0.125
vt 1 0.125
vt 1 0.375
vt 0 0.375
vt 1 0.0625
vt 1 0.125
vt 0 0.125
vt 0 0.0625
vt 0.9375 0.4375
vt 1 0.4375
vt 1 0.6875
vt 0.9375 0.6875
vt 0.0625 0.4375
vt 0.0625 0.6875
vt 0 0.4375
vt 0 0.6875
vt 0 0.4375
vt 1 0.4375
vt 1 0.6875
vt 0 0.6875
vt 1 0.375
vt 1 0.4375
vt 0 0.4375
vt 0 0.375
vt 0.9375 0.75
vt 1 0.75
vt 1 1
vt 0.9375 1
vt 0.0625 0.75
vt 0.0625 1
vt 0 0.75
vt 0 1
vt 0 0.75
vt 1 0.75
vt 1 1
vt 0 1
vt 1 0.6875
vt 1 0.75
vt 0 0.75
vt 0 0.6875
vt 0.9375 0.4375
vt 1 0.4375
vt 1 0.6875
vt 0.9375 0.6875
vt 0.0625 0.4375
vt 0.0625 0.6875
vt 0 0.4375
vt 0 0.6875
vt 0 0.4375
vt 1 0.4375
vt 1 0.6875
vt 0 0.6875
vt 1 0.375
vt 1 0.4375
vt 0 0.4375
vt 0 0.375
vt 0.9375 0.75
vt 1 0.75
vt 1 1
vt 0.9375 1
vt 0.0625 0.75
vt 0.0625 1
vt 0 0.75
vt 0 1
vt 0 0.75
vt 1 0.75
vt 1 1
vt 0 1
vt 1 0.6875
vt 1 0.75
vt 0 0.75
vt 0 0.6875
vn 1 0 0
vn -1 0 0
vn 0 0.8692938261307996 0.4942957048679213
vn 0 -0.49472629637212384 0.8690488430910669
vn 1 0 0
vn -1 0 0
vn 0 0.8692938261307996 0.4942957048679216
vn 0 -0.49472629637212384 0.8690488430910667
vn 1 0 0
vn -1 0 0
vn 0 0.8692938261307994 0.4942957048679216
vn 0 -0.49472629637212384 0.8690488430910667
vn 1 0 0
vn -1 0 0
vn 0 0.8692938261307995 0.49429570486792174
vn 0 -0.49472629637212223 0.8690488430910678
vn 1 0 0
vn -1 0 0
vn 0 0.8692938261307995 0.4942957048679214
vn 0 -0.4947262963721253 0.869048843091066
vn 1 0 0
vn -1 0 0
vn 0 0.8692938261307995 0.4942957048679214
vn 0 -0.4947262963721253 0.869048843091066
usemtl m_0
f 9/21/6 11/22/6 10/23/6 12/24/6
f 15/25/7 13/26/7 14/27/7 16/28/7
f 13/29/8 9/30/8 10/31/8 14/32/8
f 11/33/9 9/34/9 13/35/9 15/36/9
f 17/37/10 19/38/10 18/39/10 20/40/10
f 21/41/11 22/42/11 23/43/11 24/44/11
f 21/45/12 17/46/12 18/47/12 22/48/12
f 19/49/13 17/50/13 21/51/13 23/52/13
f 25/53/14 27/54/14 26/55/14 28/56/14
f 29/57/15 30/58/15 31/59/15 32/60/15
f 29/61/16 25/62/16 26/63/16 30/64/16
f 27/65/17 25/66/17 29/67/17 31/68/17
f 33/69/18 35/70/18 34/71/18 36/72/18
f 37/73/19 38/74/19 39/75/19 40/76/19
f 37/77/20 33/78/20 34/79/20 38/80/20
f 35/81/21 33/82/21 37/83/21 39/84/21
f 41/85/22 43/86/22 42/87/22 44/88/22
f 45/89/23 46/90/23 47/91/23 48/92/23
f 45/93/24 41/94/24 42/95/24 46/96/24
f 43/97/25 41/98/25 45/99/25 47/100/25
f 49/101/26 51/102/26 50/103/26 52/104/26
f 53/105/27 54/106/27 55/107/27 56/108/27
f 53/109/28 49/110/28 50/111/28 54/112/28
f 51/113/29 49/114/29 53/115/29 55/116/29