# Made in Blockbench 4.0.4
mtllib roof.mtl

o board
v 1 0.4980177004691905 1.0039624495066442
v 1 1.0000000051003946 -2.1011754225419566e-8
v 1 0.4422575208011592 0.9760823002795964
v 1 0.9442398254323632 -0.02788017023880185
v 2.220446049250313e-16 1.0000000051003946 -2.1011754225419566e-8
v 2.220446049250313e-16 0.4980177004691905 1.0039624495066442
v 2.220446049250313e-16 0.9442398254323632 -0.02788017023880185
v 2.220446049250313e-16 0.4422575208011592 0.9760823002795964
vt 0 1
vt 1 1
vt 1 0.9375
vt 0 0.9375
vt 0 0
vt 0 1
vt 0.0625 1
vt 0.0625 0
vt 0 0.8125
vt 1 0.8125
vt 1 0.75
vt 0 0.75
vt 0.0625 1
vt 0.0625 0
vt 0 0
vt 0 1
vt 1 0
vt 0 0
vt 0 1
vt 1 1
vn 0 0.4472143576597519 -0.894426809919613
vn 1 0 0
vn 0 -0.4472143576597519 0.894426809919613
vn -1 0 0
vn 0 -0.894426809919613 -0.4472143576597519
usemtl m_1
f 4/4/1 7/3/1 5/2/1 2/1/1
f 3/8/2 4/7/2 2/6/2 1/5/2
f 8/12/3 3/11/3 1/10/3 6/9/3
f 7/16/4 8/15/4 6/14/4 5/13/4
f 7/20/5 4/19/5 3/18/5 8/17/5
o shingles
v 1 0.8107375025501974 0.5147437394941228
v 1 0.8750000025501974 0.24999998949412272
v 1 0.7500625025501974 0.4999999894941227
v 1 0.8750000025501974 0.24999998949412272
v 0 0.8107375025501974 0.5147437394941228
v 0 0.8750000025501974 0.24999998949412272
v 0 0.7500625025501974 0.4999999894941227
v 0 0.8750000025501974 0.24999998949412272
v 1 0.6857375043749409 0.7647437474891432
v 1 0.7500000043749409 0.49999999748914314
v 1 0.6250625043749408 0.7499999974891431
v 1 0.7500000043749409 0.49999999748914314
v 0 0.6857375043749409 0.7647437474891432
v 0 0.7500000043749409 0.49999999748914314
v 0 0.6250625043749408 0.7499999974891431
v 0 0.7500000043749409 0.49999999748914314
v 1 0.9357375051003948 0.2647437289882455
v 1 1.0000000051003948 -2.1011754558486473e-8
v 1 0.8750625051003947 0.24999997898824544
v 1 1.0000000051003948 -2.1011754558486473e-8
v 0 0.9357375051003948 0.2647437289882455
v 0 1.0000000051003948 -2.1011754558486473e-8
v 0 0.8750625051003947 0.24999997898824544
v 0 1.0000000051003948 -2.1011754558486473e-8
v 1 0.5606749915831146 1.0147437648024145
v 1 0.6249374915831146 0.7500000148024144
v 1 0.4999999915831146 1.0000000148024144
v 1 0.6249374915831146 0.7500000148024144
v 0 0.5606749915831146 1.0147437648024145
v 0 0.6249374915831146 0.7500000148024144
v 0 0.4999999915831146 1.0000000148024144
v 0 0.6249374915831146 0.7500000148024144
vt 0.9375 0.75
vt 1 0.75
vt 1 1
vt 0.9375 1
vt 0 0.75
vt 0.0625 0.75
vt 0.0625 1
vt 0 1
vt 0 0.75
vt 1 0.75
vt 1 1
vt 0 1
vt 1 0.6875
vt 1 0.75
vt 0 0.75
vt 0 0.6875
vt 0.9375 0.4375
vt 1 0.4375
vt 1 0.6875
vt 0.9375 0.6875
vt 0 0.4375
vt 0.0625 0.4375
vt 0.0625 0.6875
vt 0 0.6875
vt 0 0.4375
vt 1 0.4375
vt 1 0.6875
vt 0 0.6875
vt 1 0.375
vt 1 0.4375
vt 0 0.4375
vt 0 0.375
vt 0.9375 0.4375
vt 1 0.4375
vt 1 0.6875
vt 0.9375 0.6875
vt 0 0.4375
vt 0.0625 0.4375
vt 0.0625 0.6875
vt 0 0.6875
vt 0 0.4375
vt 1 0.4375
vt 1 0.6875
vt 0 0.6875
vt 1 0.375
vt 1 0.4375
vt 0 0.4375
vt 0 0.375
vt 0.9375 0.75
vt 1 0.75
vt 1 1
vt 0.9375 1
vt 0 0.75
vt 0.0625 0.75
vt 0.0625 1
vt 0 1
vt 0 0.75
vt 1 0.75
vt 1 1
vt 0 1
vt 1 0.6875
vt 1 0.75
vt 0 0.75
vt 0 0.6875
vn 1 0 0
vn -1 0 0
vn 0 0.9717809806042237 0.23588498412551348
vn 0 -0.23612425334020315 0.9717228704648934
vn 1 0 0
vn -1 0 0
vn 0 0.9717809806042237 0.23588498412551348
vn 0 -0.236124253340203 0.9717228704648934
vn 1 0 0
vn -1 0 0
vn 0 0.9717809806042237 0.23588498412551348
vn 0 -0.236124253340203 0.9717228704648934
vn 1 0 0
vn -1 0 0
vn 0 0.9717809806042237 0.23588498412551348
vn 0 -0.236124253340203 0.9717228704648934
usemtl m_0
f 9/21/6 11/22/6 10/23/6 12/24/6
f 15/25/7 13/26/7 14/27/7 16/28/7
f 13/29/8 9/30/8 10/31/8 14/32/8
f 11/33/9 9/34/9 13/35/9 15/36/9
f 17/37/10 19/38/10 18/39/10 20/40/10
f 23/41/11 21/42/11 22/43/11 24/44/11
f 21/45/12 17/46/12 18/47/12 22/48/12
f 19/49/13 17/50/13 21/51/13 23/52/13
f 25/53/14 27/54/14 26/55/14 28/56/14
f 31/57/15 29/58/15 30/59/15 32/60/15
f 29/61/16 25/62/16 26/63/16 30/64/16
f 27/65/17 25/66/17 29/67/17 31/68/17
f 33/69/18 35/70/18 34/71/18 36/72/18
f 39/73/19 37/74/19 38/75/19 40/76/19
f 37/77/20 33/78/20 34/79/20 38/80/20
f 35/81/21 33/82/21 37/83/21 39/84/21